# xmcd
#
# Track frame offsets:
#	150
#	11179
#	28734
#	48504
#	66538
#	83120
#	99160
#	115664
#	131769
#	148244
#	169987
#	183668
#	199225
#
# Disc length: 2832 seconds
# Revision: 0
# Processed by: cddbd v1.5.2PL0 Copyright (c) Steve Scherf et al.
# Submitted via: dBpowerAMP V12.0
#
DISCID=c20b0e0d
DTITLE=Gary Boyle And Cathy Truelove - Back To Back
DYEAR=2013
DGENRE=Country
TTITLE0=Bluebird on Your Window Sill
TTITLE1=Someday Soon
TTITLE2=Now I'm Easy
TTITLE3=Leavin' on Your Mind
TTITLE4=Farmer's Song
TTITLE5=I Want To Grow Old With You
TTITLE6=When you and I Were Young, Maggie
TTITLE7=I Honestly Love You
TTITLE8=Four Strong Winds
TTITLE9=The Wind Beneath My Wings
TTITLE10=Alberta Bound
TTITLE11=She's Got You
TTITLE12=Let Me Be There
EXTD=
EXTT0=
EXTT1=
EXTT2=
EXTT3=
EXTT4=
EXTT5=
EXTT6=
EXTT7=
EXTT8=
EXTT9=
EXTT10=
EXTT11=
EXTT12=
PLAYORDER=
